<svg width="475" height="1024" viewBox="0 0 475 1024" fill="none" xmlns="http://www.w3.org/2000/svg">
	<path d="M0 831.75C0 825.123 5.37258 819.75 12 819.75H118.75V1013C118.75 1019.63 113.377 1025 106.75 1025H12C5.37258 1025 0 1019.63 0 1013V831.75Z" fill="black" fill-opacity="0.39" />
	<path d="M237.5 421.25C237.5 414.623 242.873 409.25 249.5 409.25H356.25V602.5C356.25 609.127 350.877 614.5 344.25 614.5H237.5V421.25Z" fill="black" fill-opacity="0.39" />
	<path d="M118.75 626.5C118.75 619.873 124.123 614.5 130.75 614.5H237.5V807.75C237.5 814.377 232.127 819.75 225.5 819.75H118.75V626.5Z" fill="black" fill-opacity="0.39" />
	<path d="M356.25 216C356.25 209.373 361.623 204 368.25 204H463C469.627 204 475 209.373 475 216V397.25C475 403.877 469.627 409.25 463 409.25H356.25V216Z" fill="black" fill-opacity="0.39" />
	<path d="M0 626.5C0 619.873 5.37258 614.5 12 614.5H106.75C113.377 614.5 118.75 619.873 118.75 626.5L118.75 807C118.75 813.627 113.377 819 106.75 819H12C5.37259 819 0 813.627 0 807V626.5Z" fill="url(#paint0_linear_2009_62)" />
	<path d="M356.25 12C356.25 5.37258 361.623 0 368.25 0H463C469.627 0 475 5.37258 475 12L475 192C475 198.627 469.627 204 463 204H416H368.25C361.623 204 356.25 198.627 356.25 192L356.25 12Z" fill="url(#paint1_linear_2009_62)" />
	<path d="M475 626.25C475 619.623 469.627 614.25 463 614.25H368.25C361.623 614.25 356.25 619.623 356.25 626.25V807C356.25 813.627 361.623 819 368.25 819H463C469.627 819 475 813.627 475 807V626.25Z" fill="url(#paint2_linear_2009_62)" />
	<path d="M118.75 12C118.75 5.37258 113.377 0 106.75 0H12C5.37259 0 0 5.37258 0 12V192.75C0 199.377 5.37258 204.75 12 204.75H106.75C113.377 204.75 118.75 199.377 118.75 192.75V12Z" fill="url(#paint3_linear_2009_62)" />
	<defs>
		<linearGradient id="paint0_linear_2009_62" x1="237.5" y1="0" x2="237.5" y2="819" gradientUnits="userSpaceOnUse">
			<stop stop-opacity="0.39" />
			<stop offset="1" stop-opacity="0" />
		</linearGradient>
		<linearGradient id="paint1_linear_2009_62" x1="237.5" y1="0" x2="237.5" y2="819" gradientUnits="userSpaceOnUse">
			<stop stop-opacity="0.39" />
			<stop offset="1" stop-opacity="0" />
		</linearGradient>
		<linearGradient id="paint2_linear_2009_62" x1="237.5" y1="0" x2="237.5" y2="819" gradientUnits="userSpaceOnUse">
			<stop stop-opacity="0.39" />
			<stop offset="1" stop-opacity="0" />
		</linearGradient>
		<linearGradient id="paint3_linear_2009_62" x1="237.5" y1="0" x2="237.5" y2="819" gradientUnits="userSpaceOnUse">
			<stop stop-opacity="0.39" />
			<stop offset="1" stop-opacity="0" />
		</linearGradient>
	</defs>
</svg>
