<svg width="91" height="91" viewBox="0 0 91 91" fill="none" xmlns="http://www.w3.org/2000/svg">
	<path d="M20.5208 72.75V72.3435C20.5203 68.4122 20.5199 64.8075 20.9141 61.8754C21.3482 58.6463 22.3696 55.2337 25.1766 52.4265C27.9836 49.6197 31.3964 48.5983 34.6254 48.1641C37.5575 47.7699 41.1622 47.7704 45.0934 47.7708H45.9064C49.8377 47.7704 53.4424 47.7699 56.3745 48.1641C59.6036 48.5983 63.0162 49.6197 65.8234 52.4265C68.6302 55.2337 69.6516 58.6463 70.0858 61.8754C70.4741 64.7644 70.4795 68.306 70.4791 72.1696C82.163 69.6712 90.9166 59.397 90.9166 47.1027C90.9166 35.8768 83.6181 26.3352 73.4543 22.8597C72.0101 10.0464 61.0138 0.0833282 47.6627 0.0833282C33.3295 0.0833282 21.7102 11.5659 21.7102 25.7304C21.7102 28.8633 22.2786 31.865 23.3191 34.6403C22.099 34.4035 20.8379 34.2794 19.5475 34.2794C8.79771 34.2794 0.083252 42.8913 0.083252 53.5147C0.083252 64.1381 8.79771 72.75 19.5475 72.75H20.5208Z" fill="#949494" fill-opacity="0.5" />
	<path fill-rule="evenodd" clip-rule="evenodd" d="M45.4999 54.5833C36.9362 54.5833 32.6541 54.5833 29.9937 57.2439C27.3333 59.9044 27.3333 64.1862 27.3333 72.75C27.3333 81.3138 27.3333 85.5957 29.9937 88.2562C32.6541 90.9167 36.9362 90.9167 45.4999 90.9167C54.0637 90.9167 58.3456 90.9167 61.0061 88.2562C63.6666 85.5957 63.6666 81.3138 63.6666 72.75C63.6666 64.1862 63.6666 59.9044 61.0061 57.2439C58.3456 54.5833 54.0637 54.5833 45.4999 54.5833ZM53.6963 68.5908L47.6409 62.5349C46.4587 61.3527 44.5412 61.3527 43.359 62.5349L37.3036 68.5908C36.121 69.7729 36.121 71.69 37.3036 72.8726C38.4858 74.0548 40.4028 74.0548 41.5855 72.8726L42.472 71.9856V80.8242C42.472 82.4964 43.8277 83.8517 45.4999 83.8517C47.1722 83.8517 48.5278 82.4964 48.5278 80.8242V71.9856L49.4144 72.8726C50.597 74.0548 52.5141 74.0548 53.6963 72.8726C54.8789 71.69 54.8789 69.7729 53.6963 68.5908Z" fill="#616161" />
</svg>
