<svg width="100" height="100" viewBox="0 0 100 100" fill="none" xmlns="http://www.w3.org/2000/svg">
	<path d="M8.00781 91.2109C8.00781 96.0572 11.9506 100 16.7969 100H75.3906C80.2369 100 84.1797 96.0572 84.1797 91.2109V90.8203H8.00781V91.2109Z" fill="#616161" />
	<path d="M31.4453 20.5078V1.71622L9.724 23.4375H28.5156C30.131 23.4375 31.4453 22.1232 31.4453 20.5078Z" fill="#616161" />
	<path d="M84.1797 8.78906C84.1797 3.94277 80.2369 0 75.3906 0H37.3047V20.5078C37.3047 25.3541 33.3619 29.2969 28.5156 29.2969H8.00781V40.0391H84.1797V8.78906Z" fill="#616161" />
	<path d="M89.0625 45.8984H8.00781V84.9609H89.0625C90.6805 84.9609 91.9922 83.6492 91.9922 82.0312V48.8281C91.9922 47.2102 90.6805 45.8984 89.0625 45.8984ZM39.2143 72.6055C38.9414 72.9309 38.6449 73.2365 38.333 73.5143C36.7395 74.9334 34.6955 75.6836 32.4219 75.6836C26.768 75.6836 22.168 71.0838 22.168 65.4297C22.168 59.7756 26.768 55.1758 32.4219 55.1758C34.4766 55.1758 36.4596 55.7818 38.1566 56.9285C39.2738 57.6834 39.5678 59.201 38.8127 60.3182C38.058 61.4354 36.5404 61.7293 35.423 60.9744C34.5363 60.3754 33.4984 60.0586 32.4219 60.0586C29.4604 60.0586 27.0508 62.468 27.0508 65.4297C27.0508 68.3914 29.4604 70.8008 32.4219 70.8008C33.4943 70.8008 34.3906 70.4869 35.0859 69.8678C35.2215 69.7471 35.3518 69.6125 35.4729 69.468C36.3396 68.435 37.8791 68.2998 38.9123 69.1662C39.9455 70.0326 40.0807 71.5725 39.2143 72.6055ZM57.8328 70.2926C57.2752 73.4164 54.3123 75.6836 50.7877 75.6836C47.9785 75.6836 45.3391 74.549 43.5461 72.5709C42.6404 71.5719 42.7164 70.0279 43.7154 69.1225C44.7146 68.2172 46.2586 68.2928 47.1639 69.2918C48.0203 70.2367 49.375 70.801 50.7877 70.801C52.1482 70.801 52.9275 69.9855 53.026 69.4346C53.1416 68.7875 52.2082 68.1975 51.2967 67.8609C48.8637 66.9635 46.7023 66.0014 46.6115 65.9609C46.4939 65.9084 46.3807 65.8469 46.2729 65.7766C44.4666 64.599 43.5359 62.5344 43.8439 60.3887C44.1705 58.1143 45.8256 56.2643 48.1633 55.56C52.4576 54.2668 56.2742 56.5287 57.1166 58.1039C57.7525 59.293 57.3041 60.7723 56.115 61.408C55.065 61.9701 53.7873 61.6854 53.0654 60.791C52.7875 60.5885 51.3998 59.6842 49.5717 60.2352C49.0582 60.3898 48.7322 60.6986 48.6772 61.0824C48.6551 61.2365 48.6697 61.4422 48.8387 61.6063C49.4508 61.873 51.1584 62.6057 52.9863 63.2799C57.2051 64.8357 58.2561 67.9227 57.8328 70.2926ZM77.7074 58.4156L72.6057 73.7729C72.218 74.9139 71.1625 75.6754 69.9742 75.6836C69.9678 75.6836 69.9613 75.6836 69.9547 75.6836C68.774 75.6836 67.7178 74.9389 67.3221 73.825L61.974 58.4178C61.5318 57.1439 62.2061 55.7529 63.4799 55.3107C64.7529 54.8693 66.1447 55.5428 66.5867 56.8166L69.9113 66.3949L73.0734 56.8762C73.4986 55.5965 74.8807 54.9035 76.16 55.3291C77.4398 55.7541 78.1326 57.1359 77.7074 58.4156Z" fill="#616161" />
</svg>
